<svg id="Layer_1" data-name="Layer 1" xmlns="http://www.w3.org/2000/svg" viewBox="0 0 32 32"><defs><style>.cls-1{fill:#00babc;}</style></defs><path class="cls-1" d="M7.68,22.88l-1.62.64a.07.07,0,0,0,0,.05l-.64,1.61a.08.08,0,0,1-.15,0l-.64-1.61a.08.08,0,0,0,0-.05l-1.61-.64a.08.08,0,0,1,0-.15l1.61-.63a.08.08,0,0,0,0-.05l.64-1.62a.08.08,0,0,1,.15,0L6,22.05a.07.07,0,0,0,0,.05l1.62.63A.08.08,0,0,1,7.68,22.88ZM3.22,13.57,4,16.48a.08.08,0,0,0,.15,0l.78-2.91A.06.06,0,0,1,5,13.52l2.91-.79a.08.08,0,0,0,0-.15L5,11.79s0,0-.06,0L4.16,8.83a.08.08,0,0,0-.15,0l-.79,2.91a.06.06,0,0,1-.05,0l-2.91.79a.08.08,0,0,0,0,.15l2.91.79A.05.05,0,0,1,3.22,13.57ZM10,19.06a1.13,1.13,0,1,0-1.13,1.13A1.13,1.13,0,0,0,10,19.06Zm-6.3-.58a1.14,1.14,0,1,0-1.13,1.14A1.14,1.14,0,0,0,3.66,18.48Zm4.8-7.84A1.14,1.14,0,1,0,7.32,9.51,1.14,1.14,0,0,0,8.46,10.64Zm6.66,11.1A16.07,16.07,0,0,0,8.3,24.49a.3.3,0,0,0,.34.5,15.3,15.3,0,0,1,3.17-1.56,15.1,15.1,0,0,1,3.43-.79h0a.46.46,0,0,0-.14-.9Zm2.79-9.43a25.28,25.28,0,0,0-8.63,1.37.3.3,0,0,0-.19.38.3.3,0,0,0,.38.2,24.93,24.93,0,0,1,8.4-1.08,1.13,1.13,0,1,0,0-.87ZM29,18.76a1.25,1.25,0,0,0-.76.26c-.3-.17-.61-.33-.92-.49-.66-.32-1.33-.6-2-.86a21.18,21.18,0,0,0-2.72-.79l2.28-1.1c.66.24,1.3.51,1.94.8a.34.34,0,0,0,0,.1A1.23,1.23,0,1,0,28,15.46a1.24,1.24,0,0,0-.82.31c-.72-.34-1.46-.64-2.21-.91l-.18-.06-3.73,1.79h0a21.31,21.31,0,0,0-4.37-.2,20,20,0,0,0-2.17.24c-.72.12-1.43.27-2.13.46a.34.34,0,0,0-.24.4.33.33,0,0,0,.4.26h0a20.87,20.87,0,0,1,2.07-.37c.7-.09,1.4-.14,2.1-.16s1.4,0,2.1,0,1.4.13,2.09.24,1.37.26,2.05.43a20.21,20.21,0,0,1,2,.64c.66.24,1.3.51,1.93.81q.45.21.87.45c0,.05,0,.11,0,.16A1.23,1.23,0,1,0,29,18.76Zm-2.62,4.66a1.16,1.16,0,0,0-.66.22c-.32-.19-.65-.37-1-.54a15.65,15.65,0,0,0-1.62-.72,16.67,16.67,0,0,0-5.23-1.05.46.46,0,0,0-.47.44.45.45,0,0,0,.43.47,15.46,15.46,0,0,1,5,1c.52.2,1,.43,1.53.68.3.15.6.32.9.49a1.36,1.36,0,0,0,0,.29,1.23,1.23,0,0,0,1.28,1.17,1.22,1.22,0,1,0-.1-2.44ZM11.49,8.55h0c.71-.12,1.43-.22,2.14-.29l.54,0,.27,0h.27c.18,0,.35,0,.53,0l.54,0a31.31,31.31,0,0,1,4.11.15l1.77,3.07.21,0c.74.13,1.47.29,2.2.48a1.23,1.23,0,1,0,.25-.87c-.69-.18-1.39-.34-2.09-.47L21,8.42c1.1.16,2.2.38,3.29.64s2,.56,3,.91a1.24,1.24,0,1,0,.33-.86,29.17,29.17,0,0,0-3.15-.94l-1.08-.23-.55-.11-.54-.09-.27,0-.28,0-.54-.08-1.1-.11a31.07,31.07,0,0,0-4.42-.1c-.73,0-1.47.11-2.2.2s-1.45.21-2.17.35a.32.32,0,0,0-.26.36A.33.33,0,0,0,11.49,8.55Z"/></svg>